<svg width="219" height="64" viewBox="0 0 219 64" fill="none" xmlns="http://www.w3.org/2000/svg">
<g clip-path="url(#clip0_8225_1509)">
<path d="M118.286 21.8655C118.286 24.4171 117.77 26.2232 116.738 27.2553C115.992 28.0007 114.96 28.3734 113.641 28.3734C112.323 28.3734 110.918 27.8287 110.058 26.7106V33.8779H108.194V15.501H110.058V16.9918C110.889 15.9024 112.093 15.329 113.641 15.329C115.19 15.329 115.992 15.7017 116.738 16.4471C117.483 17.1925 118.286 19.2853 118.286 21.8369V21.8655ZM116.308 23.7004C116.394 23.1843 116.422 22.5823 116.422 21.8655C116.422 21.1488 116.394 20.5468 116.308 20.0307C116.222 19.5147 116.078 18.9986 115.878 18.5113C115.677 18.0239 115.333 17.6512 114.903 17.3932C114.444 17.1352 113.899 17.0205 113.24 17.0205C112.581 17.0205 112.036 17.1352 111.577 17.3932C111.119 17.6512 110.803 18.0239 110.574 18.5113C110.345 18.9986 110.201 19.5147 110.144 20.0307C110.058 20.5468 110.029 21.1488 110.029 21.8655C110.029 22.5823 110.058 23.1843 110.144 23.7004C110.23 24.2164 110.373 24.7324 110.574 25.2198C110.775 25.7072 111.119 26.0799 111.577 26.3379C112.036 26.5959 112.581 26.7393 113.24 26.7393C113.899 26.7393 114.444 26.6246 114.903 26.3379C115.362 26.0799 115.677 25.7072 115.878 25.2198C116.078 24.7324 116.222 24.2164 116.308 23.7004Z" fill="#231F20"/>
<path d="M132.018 16.5618L130.642 17.9666C130.298 17.6225 129.954 17.3932 129.639 17.2498C129.323 17.1065 128.922 17.0492 128.435 17.0492C127.517 17.0492 126.8 17.3645 126.227 18.0239C125.654 18.6546 125.396 19.486 125.396 20.4608V28.2587H123.532V15.5584H125.396V17.1065C125.74 16.5618 126.227 16.1604 126.887 15.8451C127.517 15.5584 128.234 15.3864 128.951 15.3864C130.183 15.3864 131.216 15.7877 131.99 16.5618H132.018Z" fill="#231F20"/>
<path d="M144.49 28.2301H142.626V27.026C142.11 27.542 141.594 27.886 141.049 28.0867C140.505 28.2874 139.817 28.3734 138.956 28.3734C137.322 28.3734 136.118 28.0007 135.373 27.2266C134.742 26.5959 134.427 25.7359 134.427 24.6464C134.427 23.557 134.799 22.6109 135.574 21.9515C136.348 21.2922 137.408 20.9768 138.813 20.9768H142.626V19.7727C142.626 18.8266 142.368 18.1386 141.852 17.6799C141.336 17.2212 140.505 16.9918 139.386 16.9918C138.268 16.9918 137.924 17.1065 137.466 17.3072C136.978 17.5365 136.577 17.9092 136.176 18.4253L134.914 17.2785C135.459 16.5618 136.09 16.0744 136.778 15.8164C137.466 15.5297 138.354 15.415 139.415 15.415C142.798 15.415 144.49 16.8198 144.49 19.658V28.2874V28.2301ZM142.626 23.729V22.3529H139.071C137.179 22.3529 136.233 23.0983 136.233 24.5891C136.233 26.0799 137.208 26.7679 139.157 26.7679C141.107 26.7679 141.422 26.4812 141.995 25.9079C142.425 25.5065 142.626 24.7611 142.626 23.729Z" fill="#231F20"/>
<path d="M159.398 26.4812C158.738 27.198 158.107 27.6853 157.477 27.9434C156.846 28.2301 156.101 28.3447 155.212 28.3447C153.549 28.3447 152.202 27.8 151.141 26.6819C150.109 25.5638 149.593 23.9584 149.593 21.8655C149.593 19.7727 150.109 18.1672 151.141 17.0491C152.173 15.931 153.549 15.3577 155.212 15.3577C156.875 15.3577 156.875 15.501 157.477 15.759C158.107 16.0457 158.738 16.5331 159.398 17.2212L158.136 18.3966C157.649 17.8519 157.19 17.5078 156.76 17.2785C156.33 17.0491 155.814 16.9631 155.212 16.9631C153.922 16.9631 152.947 17.4505 152.259 18.3966C151.714 19.1706 151.428 20.3174 151.428 21.8082C151.428 23.299 151.714 24.4457 152.259 25.2198C152.918 26.1946 153.922 26.6533 155.212 26.6533C156.502 26.6533 156.33 26.5386 156.76 26.3379C157.19 26.1085 157.649 25.7358 158.136 25.2198L159.398 26.4239V26.4812Z" fill="#231F20"/>
<path d="M169.116 28.2301H167.797C166.736 28.2301 165.934 27.9147 165.389 27.284C164.816 26.6533 164.558 25.8219 164.558 24.8471V17.0491H162.952V15.6157H164.558V11.6307H166.421V15.6157H169.116V17.0491H166.421V24.7898C166.421 26.0226 166.994 26.6533 168.141 26.6533H169.116V28.2587V28.2301Z" fill="#231F20"/>
<path d="M176.083 11.9174H173.99V9.82455H176.083V11.9174ZM175.94 28.2301H174.076V15.5297H175.94V28.2301Z" fill="#231F20"/>
<path d="M191.02 26.4812C190.36 27.198 189.73 27.6853 189.099 27.9434C188.468 28.2301 187.723 28.3447 186.834 28.3447C185.171 28.3447 183.824 27.8 182.763 26.6819C181.731 25.5638 181.215 23.9584 181.215 21.8655C181.215 19.7727 181.731 18.1672 182.763 17.0491C183.795 15.931 185.171 15.3577 186.834 15.3577C188.497 15.3577 188.497 15.501 189.099 15.759C189.73 16.0457 190.36 16.5331 191.02 17.2212L189.758 18.3966C189.271 17.8519 188.812 17.5078 188.382 17.2785C187.952 17.0491 187.436 16.9631 186.834 16.9631C185.544 16.9631 184.569 17.4505 183.881 18.3966C183.336 19.1706 183.05 20.3174 183.05 21.8082C183.05 23.299 183.336 24.4457 183.881 25.2198C184.54 26.1946 185.544 26.6533 186.834 26.6533C188.124 26.6533 187.952 26.5386 188.382 26.3379C188.812 26.1085 189.271 25.7358 189.758 25.2198L191.02 26.4239V26.4812Z" fill="#231F20"/>
<path d="M205.181 22.3529H196.609C196.609 23.7577 196.925 24.8185 197.584 25.5925C198.243 26.3666 199.161 26.7393 200.365 26.7393C201.569 26.7393 201.684 26.6246 202.171 26.3953C202.658 26.1659 203.174 25.7932 203.69 25.2772L204.952 26.3953C204.264 27.0833 203.576 27.5707 202.888 27.886C202.2 28.2014 201.34 28.3447 200.308 28.3447C198.559 28.3447 197.211 27.8 196.237 26.7393C195.262 25.6785 194.774 24.0444 194.774 21.8369C194.774 19.6294 195.233 18.1959 196.179 17.0492C197.097 15.9024 198.387 15.329 199.992 15.329C201.598 15.329 202.916 15.8737 203.834 16.9918C204.751 18.0812 205.21 19.6007 205.21 21.4928V22.3529H205.181ZM203.318 20.9768C203.26 20.0881 203.146 19.3713 202.916 18.8553C202.687 18.2819 202.286 17.7945 201.741 17.4505C201.196 17.1065 200.594 16.9345 199.935 16.9345C199.275 16.9345 198.673 17.1065 198.129 17.4505C197.584 17.7945 197.211 18.2533 196.953 18.8553C196.753 19.3713 196.609 20.0881 196.552 20.9768H203.26H203.318Z" fill="#231F20"/>
<path d="M118.315 51.1079H116.078V54.0322H114.244V51.1079H106.904V49.4165L113.527 35.6267H115.505L108.882 49.4165H114.215V44.1987H116.05V49.4165H118.286V51.1079H118.315Z" fill="#231F20"/>
<path d="M143.572 46.4922C143.572 47.8397 143.429 48.9291 143.171 49.7892C142.913 50.6492 142.454 51.4233 141.823 52.0827C140.447 53.4875 138.727 54.1755 136.634 54.1755C134.541 54.1755 133.022 53.5161 131.674 52.1687C130.872 51.3659 130.384 50.4485 130.184 49.4165C129.983 48.3844 129.868 46.8649 129.868 44.8581C129.868 42.8512 129.983 41.3318 130.184 40.2997C130.384 39.239 130.9 38.3215 131.674 37.5475C133.022 36.2 134.656 35.5406 136.634 35.5406C138.612 35.5406 140.189 36.0854 141.393 37.2034C142.569 38.2929 143.314 39.7263 143.572 41.4465H139.96C139.501 39.669 138.412 38.7516 136.663 38.7516C134.914 38.7516 134.943 39.0669 134.369 39.7263C133.997 40.185 133.767 40.7011 133.652 41.3318C133.538 41.9625 133.48 43.1379 133.48 44.8868C133.48 46.6356 133.538 47.8683 133.652 48.4991C133.767 49.1298 133.997 49.6458 134.369 50.0758C134.914 50.7066 135.659 51.0219 136.663 51.0219C137.666 51.0219 138.584 50.6779 139.214 49.9898C139.759 49.3591 140.046 48.5277 140.046 47.553V46.8649H136.663V43.8833H143.601V46.5782L143.572 46.4922Z" fill="#231F20"/>
<path d="M161.146 42.5359C161.146 43.0233 161.146 43.7973 161.146 44.8294C161.146 45.8615 161.146 46.6356 161.146 47.1229C161.146 47.6103 161.06 48.2124 160.974 48.9291C160.888 49.6458 160.687 50.2479 160.429 50.7352C160.171 51.2226 159.798 51.71 159.368 52.14C158.021 53.4875 156.387 54.1469 154.408 54.1469C152.43 54.1469 150.768 53.4875 149.42 52.14C148.961 51.6813 148.617 51.2226 148.359 50.7352C148.101 50.2479 147.929 49.6172 147.815 48.9004C147.7 48.155 147.643 47.5817 147.643 47.1229C147.643 46.6642 147.643 45.9188 147.643 44.8294C147.643 43.74 147.643 42.9659 147.643 42.5359C147.643 42.0772 147.729 41.5038 147.815 40.7584C147.929 40.013 148.101 39.411 148.359 38.9236C148.617 38.4362 148.961 37.9775 149.42 37.5188C150.768 36.1714 152.43 35.512 154.408 35.512C156.387 35.512 158.021 36.1714 159.368 37.5188C160.716 38.8663 160.171 38.4362 160.429 38.9523C160.687 39.4396 160.888 40.0704 160.974 40.7584C161.06 41.4465 161.146 42.0772 161.146 42.5646V42.5359ZM157.39 48.4131C157.505 47.7537 157.562 46.5496 157.562 44.8294C157.562 43.1093 157.505 41.9052 157.39 41.2458C157.275 40.5864 157.017 40.0417 156.673 39.669C156.1 39.0096 155.355 38.6943 154.38 38.6943C153.405 38.6943 152.631 39.0096 152.058 39.669C151.685 40.0704 151.456 40.5864 151.341 41.2458C151.226 41.9052 151.169 43.0806 151.169 44.8294C151.169 46.5782 151.226 47.7537 151.341 48.4131C151.456 49.0724 151.685 49.5885 152.058 49.9898C152.631 50.6492 153.405 50.9646 154.38 50.9646C155.355 50.9646 156.1 50.6492 156.673 49.9898C157.046 49.5885 157.275 49.0724 157.39 48.4131Z" fill="#231F20"/>
<path d="M179.035 42.5359C179.035 43.0233 179.035 43.7973 179.035 44.8294C179.035 45.8615 179.035 46.6356 179.035 47.1229C179.035 47.6103 178.949 48.2124 178.863 48.9291C178.777 49.6458 178.577 50.2479 178.319 50.7352C178.061 51.2226 177.688 51.71 177.258 52.14C175.91 53.4875 174.276 54.1469 172.298 54.1469C170.32 54.1469 168.657 53.4875 167.31 52.14C166.851 51.6813 166.507 51.2226 166.249 50.7352C165.991 50.2479 165.819 49.6172 165.704 48.9004C165.59 48.155 165.532 47.5817 165.532 47.1229C165.532 46.6642 165.532 45.9188 165.532 44.8294C165.532 43.74 165.532 42.9659 165.532 42.5359C165.532 42.0772 165.618 41.5038 165.704 40.7584C165.819 40.013 165.991 39.411 166.249 38.9236C166.507 38.4362 166.851 37.9775 167.31 37.5188C168.657 36.1714 170.32 35.512 172.298 35.512C174.276 35.512 175.91 36.1714 177.258 37.5188C177.717 37.9775 178.061 38.4362 178.319 38.9523C178.577 39.4396 178.777 40.0704 178.863 40.7584C178.949 41.4465 179.035 42.0772 179.035 42.5646V42.5359ZM175.308 48.4131C175.423 47.7537 175.48 46.5496 175.48 44.8294C175.48 43.1093 175.423 41.9052 175.308 41.2458C175.194 40.5864 174.936 40.0417 174.592 39.669C174.018 39.0096 173.244 38.6943 172.298 38.6943C171.352 38.6943 170.549 39.0096 169.976 39.669C169.603 40.0704 169.374 40.5864 169.259 41.2458C169.145 41.9052 169.087 43.0806 169.087 44.8294C169.087 46.5782 169.145 47.7537 169.259 48.4131C169.374 49.0724 169.603 49.5885 169.976 49.9898C170.549 50.6492 171.323 50.9646 172.298 50.9646C173.273 50.9646 174.018 50.6492 174.592 49.9898C174.964 49.5885 175.194 49.0724 175.308 48.4131Z" fill="#231F20"/>
<path d="M197.355 43.8547V46.5782C197.355 46.7216 197.355 47.0083 197.355 47.4383C197.355 47.8684 197.298 48.1837 197.269 48.3557C197.24 48.5277 197.183 48.7858 197.154 49.1585C197.097 49.5312 197.04 49.8178 196.925 50.0185C196.839 50.2479 196.724 50.4772 196.581 50.7926C196.466 51.0793 196.294 51.3373 196.122 51.5667C195.95 51.796 195.75 52.0254 195.52 52.2547C194.345 53.4301 192.739 54.0035 190.675 54.0035H184.053V35.6267H190.675C192.739 35.6267 194.345 36.2001 195.52 37.3755C195.75 37.6048 195.95 37.8342 196.122 38.0635C196.294 38.2929 196.466 38.5509 196.581 38.8376C196.724 39.1243 196.81 39.3537 196.925 39.583C197.011 39.7837 197.097 40.0704 197.154 40.4144C197.212 40.7584 197.24 41.0165 197.269 41.1885C197.298 41.3605 197.326 41.6472 197.355 42.0772C197.355 42.5072 197.355 42.7939 197.355 42.9086V43.826V43.8547ZM193.772 44.7434C193.772 43.2813 193.714 42.2206 193.628 41.5612C193.542 40.9018 193.313 40.3571 192.997 39.9844C192.367 39.239 191.478 38.8376 190.303 38.8376H187.579V50.8213H190.303C191.478 50.8213 192.367 50.4486 192.997 49.6745C193.313 49.2731 193.542 48.7284 193.628 48.0404C193.714 47.3523 193.772 46.2342 193.772 44.7434Z" fill="#231F20"/>
<path d="M64.7609 1.88315L68.7746 2.48519L85.6893 32.5017L68.7746 62.5181L64.5029 63.1488L81.819 32.5017L64.7896 1.91181L64.7609 1.88315Z" fill="#231F20"/>
<path d="M13.3859 32.4729L30.702 63.1201L26.4303 62.5181L9.51562 32.5016L26.4303 2.48515L30.4153 1.91177L13.3859 32.4729Z" fill="#231F20"/>
<path d="M64.5032 63.1203L47.6172 65.2131L30.7025 63.1203L13.415 32.4731L30.4158 1.91189L47.6172 -1.2417L64.7613 1.88323L81.7906 32.4731L64.5032 63.1203Z" fill="white"/>
<path d="M41.7687 25.4205C40.6793 24.3311 33.7414 33.5625 32.7666 33.3905C32.1932 33.3045 33.512 31.0109 34.5154 28.9468C35.1175 29.0901 36.0922 29.0614 36.1782 27.198C36.2929 24.5317 35.2608 22.5822 35.8055 21.9229C36.3789 21.2635 36.895 20.3461 38.4431 21.9229C39.1312 22.6109 41.1953 24.6177 43.3742 26.6246C42.3134 27.456 40.9086 29.1475 39.5899 30.7242C37.239 33.5912 35.5475 35.4833 35.3755 34.7092C35.2035 33.9065 42.8008 26.5099 41.74 25.4205H41.7687ZM31.0178 31.1256C32.0212 29.4055 32.9673 27.8 33.7414 26.7679C33.4547 25.0764 33.0246 22.7543 32.6806 21.7508C32.1072 20.0594 32.4799 16.8198 31.5052 14.6409C31.1612 13.8955 29.0683 11.9174 26.2014 9.4805C25.6567 10.4552 13.415 32.5017 13.415 32.5017C13.415 32.5017 18.7475 41.9338 21.299 46.4635C22.4171 45.4028 22.2738 45.5461 22.5318 45.2881C23.7646 44.0553 24.8253 39.3823 25.9147 37.6908C27.0042 35.9993 29.1257 34.3939 31.0465 31.1256H31.0178ZM44.8936 19.8013C44.0909 19.9734 46.0117 21.6648 48.8786 24.0157C50.4841 25.3345 52.1469 26.7393 52.9783 27.8C54.9851 25.5925 57.0206 23.5283 57.68 22.8689C59.2281 21.3208 58.3394 20.7761 57.68 20.2314C57.0206 19.658 55.0711 20.6901 52.4049 20.6041C50.5414 20.5467 50.5127 19.5433 50.6561 18.9413C48.5919 17.9379 46.2984 16.6191 46.2124 17.1925C46.069 18.1672 55.2718 25.1338 54.1824 26.1945C53.093 27.284 45.6964 19.658 44.8936 19.83V19.8013ZM50.3121 44.1987C51.1148 44.0267 49.194 42.3352 46.3271 39.9843C44.7216 38.6656 43.0588 37.2608 42.2274 36.2C40.2206 38.4075 38.1851 40.4717 37.5257 41.1311C35.9776 42.6792 36.8663 43.2239 37.5257 43.7687C38.1851 44.342 40.1346 43.3099 42.8008 43.396C44.6643 43.4533 44.6929 44.4567 44.5496 45.0588C46.6138 46.0622 48.9073 47.3809 48.9933 46.8076C49.1366 45.8328 39.9339 38.8662 41.0233 37.8055C42.1127 36.7161 49.5093 44.342 50.3121 44.17V44.1987ZM60.6903 35.0533C61.6937 32.9891 63.0124 30.6956 62.4391 30.6096C61.4643 30.4662 54.4977 39.669 53.437 38.5796C52.3476 37.4901 59.9735 30.0935 59.8015 29.2908C59.6295 28.4881 57.938 30.4089 55.5872 33.2758C54.2684 34.8813 52.8636 36.5441 51.8029 37.3755C54.0104 39.3823 56.0745 41.4178 56.7339 42.0772C58.2821 43.6253 58.8268 42.7366 59.3715 42.0772C59.9449 41.4178 58.9128 39.4683 58.9988 36.8021C59.0561 34.9386 60.0595 34.9099 60.6616 35.0533H60.6903ZM42.8868 22.2095C42.5428 22.8976 50.6274 29.6922 50.0827 31.1543C50.6274 30.4662 51.2581 29.7495 51.9175 29.0041C49.28 27.3126 43.2308 21.5502 42.8868 22.2382V22.2095ZM57.3646 27.2553C56.6766 26.9113 49.882 34.9959 48.4199 34.4512C49.108 34.9959 49.8247 35.6266 50.5701 36.286C52.2616 33.6485 58.024 27.5993 57.336 27.2553H57.3646ZM52.3476 41.7618C52.6916 41.0738 44.6069 34.2792 45.1516 32.8171C44.6069 33.5051 43.9762 34.2219 43.3168 34.9673C45.9544 36.6587 52.0035 42.4212 52.3476 41.7332V41.7618ZM60.8909 57.0711C59.6582 55.8383 54.9851 54.7775 53.2936 53.6881C51.6022 52.5987 49.9967 50.4772 46.7284 48.5564C45.0083 47.553 43.4028 46.6069 42.3708 45.8328C40.6793 46.1195 38.3571 46.5495 37.3537 46.8936C35.6622 47.467 32.4226 47.0943 30.2438 48.069C29.4984 48.413 27.6062 50.4199 25.1693 53.2868C25.7427 54.2902 30.7025 63.0916 30.7025 63.0916L47.5885 65.1844L64.4746 63.0916L65.7933 60.7407C64.7326 59.6226 61.1203 57.3004 60.8623 57.0424L60.8909 57.0711ZM34.3148 6.90029C35.5475 8.13306 40.2206 9.19381 41.912 10.2832C43.6035 11.3727 45.209 13.4942 48.4773 15.415C50.1974 16.4184 51.8029 17.3645 52.8349 18.1385C54.5264 17.8519 56.8486 17.4218 57.852 17.0778C59.5435 16.5044 62.7831 16.8771 64.9619 15.9024C65.7073 15.5583 67.3415 13.8382 69.807 10.9713C68.2875 8.24773 64.7613 1.91188 64.7613 1.91188L47.5885 -1.21304L30.3871 1.94055C30.3871 1.94055 29.9571 2.71461 29.6417 3.25932C30.7025 4.37741 34.0281 6.67094 34.2861 6.92896L34.3148 6.90029ZM46.7571 29.5201C46.0691 28.9754 45.3523 28.3447 44.6069 27.6853C42.9155 30.3229 37.153 36.372 37.841 36.7161C38.5291 37.0601 45.3237 28.9754 46.7858 29.5201H46.7571ZM64.1879 32.8458C63.1845 34.5659 62.2384 36.1714 61.4643 37.2034C61.751 38.8949 62.181 41.2171 62.5251 42.2205C63.0985 43.912 62.7258 47.1516 63.7005 49.3304C64.0445 50.0758 66.3954 52.226 69.2623 54.6915L81.8193 32.4731L73.5913 17.6798C73.3333 18.0525 72.9606 18.4539 72.7026 18.7119C71.4698 19.9447 70.409 24.6177 69.3196 26.3092C68.2302 28.0007 66.1087 29.6062 64.1879 32.8744V32.8458Z" fill="#FED20D"/>
</g>
<defs>
<clipPath id="clip0_8225_1509">
<rect width="218.667" height="64" fill="white"/>
</clipPath>
</defs>
</svg>
