<svg width="423" height="190" viewBox="0 0 423 190" fill="none" xmlns="http://www.w3.org/2000/svg">
<g clip-path="url(#clip0_8202_17947)">
<path d="M317.268 85.6647H311.957L284.074 43.5454V85.6647H278.468V33.1447H283.779L311.662 75.1164V33.1447H317.268V85.6647Z" fill="#231F20"/>
<path d="M371.042 66.4861C371.042 72.3381 369.542 76.8623 366.543 80.0587C362.805 84.0911 358.133 86.1074 352.527 86.1074C347.216 86.1074 342.741 84.2878 339.102 80.6488C336.84 78.3867 335.455 75.8951 334.939 73.1659C334.422 70.4366 334.16 65.855 334.16 59.4129C334.16 52.9709 334.414 48.3811 334.939 45.6518C335.455 42.9226 336.84 40.431 339.102 38.1689C342.741 34.5298 347.216 32.7103 352.527 32.7103C357.445 32.7103 361.535 34.1446 364.813 37.0214C368.083 39.8982 370.108 43.693 370.903 48.4139H365.297C364.559 45.0699 363.059 42.4554 360.797 40.5621C358.535 38.6688 355.781 37.7181 352.536 37.7181C348.897 37.7181 345.872 38.9721 343.463 41.4801C341.889 43.1029 340.881 45.0617 340.438 47.3402C339.996 49.6269 339.774 53.6511 339.774 59.4047C339.774 65.1584 339.996 69.1908 340.438 71.5021C340.881 73.8133 341.889 75.7804 343.463 77.4032C345.823 79.862 348.847 81.0914 352.536 81.0914C356.716 81.0914 360.035 79.5915 362.494 76.5918C364.461 74.2313 365.444 71.0595 365.444 67.0762V63.093H352.536V58.1508H371.05V66.4861H371.042Z" fill="#231F20"/>
<path d="M421.751 45.6437C422.267 48.3729 422.529 52.9627 422.529 59.4048C422.529 65.8468 422.275 70.4284 421.751 73.1577C421.235 75.8869 419.849 78.3867 417.587 80.6406C413.948 84.2797 409.473 86.0992 404.162 86.0992C398.851 86.0992 394.376 84.2797 390.737 80.6406C388.475 78.3785 387.09 75.8869 386.574 73.1577C386.057 70.4284 385.795 65.8468 385.795 59.4048C385.795 52.9627 386.049 48.3729 386.574 45.6437C387.09 42.9144 388.475 40.4228 390.737 38.1607C394.376 34.5217 398.851 32.7021 404.162 32.7021C409.473 32.7021 413.948 34.5217 417.587 38.1607C419.849 40.4228 421.235 42.9226 421.751 45.6437ZM416.26 71.4611C416.702 69.1744 416.923 65.1584 416.923 59.4048C416.923 53.6512 416.702 49.6269 416.26 47.3402C415.817 45.0535 414.809 43.1029 413.235 41.4801C410.826 38.9721 407.801 37.7181 404.162 37.7181C400.523 37.7181 397.499 38.9721 395.089 41.4801C393.516 43.1029 392.507 45.0617 392.065 47.3402C391.622 49.6269 391.401 53.6512 391.401 59.4048C391.401 65.1584 391.622 69.1744 392.065 71.4611C392.507 73.7478 393.516 75.7066 395.089 77.3294C397.499 79.8374 400.523 81.0914 404.162 81.0914C407.801 81.0914 410.826 79.8374 413.235 77.3294C414.809 75.7066 415.817 73.7478 416.26 71.4611Z" fill="#231F20"/>
<path d="M310.113 159.429H300.523V135.972C300.523 133.611 299.909 131.89 298.679 130.808C297.45 129.727 295.974 129.186 294.253 129.186C292.532 129.186 291.073 129.735 289.868 130.841C288.664 131.948 288.057 133.661 288.057 135.964V159.421H278.468V106.901H288.057V124.53C290.663 121.875 293.737 120.547 297.278 120.547C301.359 120.547 304.515 121.834 306.752 124.416C308.99 126.997 310.113 130.382 310.113 134.562V159.421V159.429Z" fill="#231F20"/>
<path d="M355.617 159.429H346.249V155.888C343.741 158.544 340.544 159.871 336.659 159.871C332.774 159.871 329.848 158.74 327.586 156.478C324.98 153.872 323.677 150.233 323.677 145.561V120.998H333.266V144.233C333.266 146.643 333.889 148.413 335.143 149.545C336.397 150.676 337.88 151.241 339.61 151.241C341.339 151.241 342.888 150.676 344.142 149.545C345.396 148.413 346.027 146.643 346.027 144.233V120.998H355.617V159.429Z" fill="#231F20"/>
<path d="M402.088 134.087C402.186 135.587 402.235 137.611 402.235 140.168C402.235 142.725 402.186 144.758 402.088 146.25C401.989 147.75 401.629 149.52 401.014 151.561C400.399 153.602 399.506 155.216 398.326 156.388C396.015 158.699 392.892 159.855 388.958 159.855C385.024 159.855 381.778 158.503 379.368 155.798V159.413H370.074V106.892H379.664V124.375C381.975 121.817 385.073 120.539 388.958 120.539C392.843 120.539 396.015 121.694 398.326 124.006C399.506 125.186 400.399 126.784 401.014 128.8C401.629 130.817 401.989 132.579 402.088 134.079V134.087ZM392.646 140.168C392.646 136.529 392.228 133.792 391.392 131.948C390.556 130.104 388.81 129.177 386.155 129.177C383.499 129.177 381.754 130.095 380.918 131.948C380.082 133.792 379.664 136.537 379.664 140.168C379.664 141.939 379.737 143.414 379.885 144.594C380.032 145.774 380.311 146.905 380.729 147.987C381.147 149.069 381.811 149.881 382.721 150.421C383.63 150.962 384.77 151.233 386.155 151.233C387.54 151.233 388.671 150.962 389.589 150.421C390.499 149.881 391.163 149.069 391.581 147.987C391.999 146.905 392.285 145.774 392.425 144.594C392.572 143.414 392.646 141.939 392.646 140.168Z" fill="#231F20"/>
<path d="M157.945 8.8927L169.387 10.5729L217.751 96.3852L169.387 182.197L157.158 184.001L206.646 96.3933L157.945 8.8927Z" fill="#231F20"/>
<path d="M157.159 183.992L108.885 190L60.6018 183.96L11.1143 96.3851L59.7412 8.96644L108.885 0L157.946 8.89268L206.647 96.3851L157.159 183.992Z" fill="#FED210"/>
<path d="M11.1056 96.3851L60.6013 183.96L48.3647 182.197L0 96.3851L48.3647 10.5728L59.7325 8.96643L11.1056 96.3851Z" fill="#231F20"/>
<path d="M84.1075 121.293H73.7559V99.098H55.8066V121.293H45.4551V68.2563H55.8066V89.9348H73.7559V68.2563H84.1075V121.293Z" fill="#231F20"/>
<path d="M130.964 103.114C130.964 108.63 129.103 113.105 125.374 116.555C121.653 120.006 117.006 121.735 111.441 121.735C105.876 121.735 101.237 120.014 97.5076 116.555C93.7867 113.105 91.918 108.622 91.918 103.114V68.2563H102.27V102.745C102.27 105.778 103.089 108.155 104.728 109.892C106.368 111.63 108.605 112.498 111.433 112.498C114.26 112.498 116.506 111.63 118.178 109.892C119.842 108.155 120.67 105.77 120.67 102.745V68.2563H130.947V103.114H130.964Z" fill="#231F20"/>
<path d="M177.222 106.024C177.222 110.843 175.73 114.588 172.755 117.269C169.772 119.949 165.854 121.293 160.986 121.293H138.791V68.2563H160.092C165.207 68.2563 169.215 69.6005 172.124 72.2806C175.026 74.9607 176.484 78.5915 176.484 83.1567C176.484 85.8368 175.804 88.1317 174.435 90.0496C173.067 91.9592 171.567 93.3116 169.928 94.1066C174.796 96.3933 177.23 100.36 177.23 106.024H177.222ZM164.338 88.0333C165.526 86.9187 166.125 85.4434 166.125 83.5993C166.125 81.7552 165.526 80.2881 164.338 79.1652C163.15 78.0506 161.453 77.4933 159.273 77.4933H149.143V89.7053H159.273C161.453 89.7053 163.15 89.148 164.338 88.0333ZM165.084 110.195C166.272 108.958 166.871 107.392 166.871 105.507C166.871 103.622 166.272 102.065 165.084 100.852C163.895 99.6389 162.182 99.0242 159.945 99.0242H149.143V112.064H159.945C162.182 112.064 163.895 111.441 165.084 110.204V110.195Z" fill="#231F20"/>
</g>
<defs>
<clipPath id="clip0_8202_17947">
<rect width="422.529" height="190" fill="white"/>
</clipPath>
</defs>
</svg>
