<svg width="615" height="180" viewBox="0 0 615 180" fill="none" xmlns="http://www.w3.org/2000/svg">
<g clip-path="url(#clip0_8213_4038)">
<path d="M332.679 61.4968C332.679 68.673 331.228 73.7528 328.325 76.6555C326.229 78.752 323.326 79.8002 319.617 79.8002C315.908 79.8002 311.957 78.2682 309.538 75.1236V95.2815H304.297V43.5966H309.538V47.7894C311.876 44.7254 315.263 43.1128 319.617 43.1128C323.971 43.1128 326.229 44.161 328.325 46.2574C330.422 48.3538 332.679 54.24 332.679 61.4162V61.4968ZM327.116 66.6572C327.358 65.2059 327.438 63.5126 327.438 61.4968C327.438 59.481 327.358 57.7877 327.116 56.3364C326.874 54.885 326.471 53.4336 325.906 52.0629C325.342 50.6922 324.374 49.644 323.165 48.9183C321.875 48.1926 320.343 47.8701 318.488 47.8701C316.634 47.8701 315.102 48.1926 313.811 48.9183C312.521 49.644 311.634 50.6922 310.989 52.0629C310.344 53.4336 309.941 54.885 309.78 56.3364C309.538 57.7877 309.457 59.481 309.457 61.4968C309.457 63.5126 309.538 65.2059 309.78 66.6572C310.022 68.1086 310.425 69.56 310.989 70.9307C311.554 72.3014 312.521 73.3496 313.811 74.0753C315.102 74.801 316.634 75.2042 318.488 75.2042C320.343 75.2042 321.875 74.8816 323.165 74.0753C324.455 73.3496 325.342 72.3014 325.906 70.9307C326.471 69.56 326.874 68.1086 327.116 66.6572Z" fill="#231F20"/>
<path d="M371.303 46.5799L367.432 50.5309C366.465 49.5633 365.497 48.9183 364.61 48.5151C363.723 48.1119 362.594 47.9507 361.224 47.9507C358.643 47.9507 356.628 48.8376 355.015 50.6922C353.402 52.466 352.677 54.8044 352.677 57.5458V79.4776H347.436V43.7578H352.677V48.1119C353.644 46.5799 355.015 45.4511 356.869 44.5642C358.643 43.7578 360.659 43.274 362.675 43.274C366.142 43.274 369.045 44.4029 371.222 46.5799H371.303Z" fill="#231F20"/>
<path d="M406.377 79.397H401.136V76.0105C399.684 77.4618 398.233 78.4294 396.701 78.9938C395.169 79.5583 393.234 79.8002 390.815 79.8002C386.219 79.8002 382.832 78.752 380.736 76.5749C378.962 74.801 378.075 72.3821 378.075 69.3181C378.075 66.2541 379.123 63.5932 381.3 61.7387C383.478 59.8842 386.461 58.9972 390.412 58.9972H401.136V55.6107C401.136 52.9498 400.41 51.0147 398.959 49.7246C397.507 48.4345 395.169 47.7894 392.024 47.7894C388.88 47.7894 387.912 48.1119 386.622 48.6764C385.251 49.3214 384.123 50.3696 382.994 51.821L379.446 48.5957C380.978 46.5799 382.752 45.2092 384.687 44.4835C386.622 43.6772 389.122 43.3547 392.105 43.3547C401.62 43.3547 406.377 47.3056 406.377 55.2882V79.5583V79.397ZM401.136 66.7378V62.8675H391.137C385.816 62.8675 383.155 64.9639 383.155 69.1568C383.155 73.3496 385.896 75.2848 391.379 75.2848C396.862 75.2848 397.749 74.4785 399.362 72.8658C400.571 71.737 401.136 69.6406 401.136 66.7378Z" fill="#231F20"/>
<path d="M448.306 74.4785C446.451 76.4943 444.677 77.865 442.903 78.5907C441.129 79.397 439.033 79.7195 436.533 79.7195C431.857 79.7195 428.067 78.1875 425.084 75.0429C422.181 71.8983 420.729 67.3829 420.729 61.4968C420.729 55.6107 422.181 51.0953 425.084 47.9507C427.986 44.806 431.857 43.1934 436.533 43.1934C441.21 43.1934 441.21 43.5966 442.903 44.3223C444.677 45.1286 446.451 46.4993 448.306 48.4345L444.758 51.7404C443.387 50.2084 442.097 49.2408 440.887 48.5957C439.678 47.9507 438.227 47.7088 436.533 47.7088C432.905 47.7088 430.163 49.0795 428.228 51.7404C426.696 53.9174 425.89 57.1427 425.89 61.3355C425.89 65.5284 426.696 68.7536 428.228 70.9307C430.083 73.6722 432.905 74.9623 436.533 74.9623C440.162 74.9623 439.678 74.6397 440.887 74.0753C442.097 73.4303 443.387 72.3821 444.758 70.9307L448.306 74.3172V74.4785Z" fill="#231F20"/>
<path d="M475.64 79.397H471.93C468.947 79.397 466.689 78.5101 465.157 76.7362C463.545 74.9623 462.819 72.624 462.819 69.8825V47.9507H458.304V43.9191H462.819V32.7113H468.06V43.9191H475.64V47.9507H468.06V69.7212C468.06 73.1884 469.673 74.9623 472.898 74.9623H475.64V79.4776V79.397Z" fill="#231F20"/>
<path d="M495.233 33.5176H489.347V27.6315H495.233V33.5176ZM494.83 79.397H489.589V43.6772H494.83V79.397Z" fill="#231F20"/>
<path d="M537.242 74.4785C535.388 76.4943 533.614 77.865 531.84 78.5907C530.066 79.397 527.969 79.7195 525.47 79.7195C520.793 79.7195 517.004 78.1875 514.02 75.0429C511.117 71.8983 509.666 67.3829 509.666 61.4968C509.666 55.6107 511.117 51.0953 514.02 47.9507C516.923 44.806 520.793 43.1934 525.47 43.1934C530.146 43.1934 530.146 43.5966 531.84 44.3223C533.614 45.1286 535.388 46.4993 537.242 48.4345L533.694 51.7404C532.324 50.2084 531.033 49.2408 529.824 48.5957C528.614 47.9507 527.163 47.7088 525.47 47.7088C521.841 47.7088 519.1 49.0795 517.165 51.7404C515.633 53.9174 514.826 57.1427 514.826 61.3355C514.826 65.5284 515.633 68.7536 517.165 70.9307C519.019 73.6722 521.841 74.9623 525.47 74.9623C529.098 74.9623 528.614 74.6397 529.824 74.0753C531.033 73.4303 532.324 72.3821 533.694 70.9307L537.242 74.3172V74.4785Z" fill="#231F20"/>
<path d="M577.074 62.8675H552.965C552.965 66.8185 553.852 69.8018 555.707 71.9789C557.561 74.156 560.141 75.2042 563.528 75.2042C566.914 75.2042 567.237 74.8817 568.608 74.2366C569.978 73.5915 571.43 72.5433 572.881 71.092L576.429 74.2366C574.494 76.1718 572.559 77.5425 570.623 78.4294C568.688 79.3164 566.269 79.7195 563.367 79.7195C558.448 79.7195 554.658 78.1875 551.917 75.2042C549.175 72.2208 547.805 67.6248 547.805 61.4162C547.805 55.2075 549.095 51.176 551.756 47.9507C554.336 44.7254 557.964 43.1128 562.48 43.1128C566.995 43.1128 570.704 44.6448 573.284 47.7894C575.864 50.8534 577.155 55.1269 577.155 60.4486V62.8675H577.074ZM571.833 58.9972C571.672 56.4977 571.349 54.4819 570.704 53.0305C570.059 51.4179 568.93 50.0471 567.398 49.0795C565.866 48.1119 564.173 47.6282 562.318 47.6282C560.464 47.6282 558.771 48.1119 557.239 49.0795C555.707 50.0471 554.658 51.3372 553.933 53.0305C553.368 54.4819 552.965 56.4977 552.804 58.9972H571.672H571.833Z" fill="#231F20"/>
<path d="M332.76 143.741H326.471V151.965H321.311V143.741H300.669V138.984L319.295 100.2H324.858L306.233 138.984H321.23V124.309H326.39V138.984H332.68V143.741H332.76Z" fill="#231F20"/>
<path d="M403.797 130.759C403.797 134.549 403.394 137.613 402.668 140.032C401.942 142.451 400.652 144.628 398.878 146.483C395.008 150.433 390.17 152.369 384.284 152.369C378.398 152.369 374.124 150.514 370.335 146.724C368.077 144.467 366.706 141.887 366.142 138.984C365.577 136.081 365.255 131.808 365.255 126.163C365.255 120.519 365.577 116.246 366.142 113.343C366.706 110.36 368.158 107.779 370.335 105.602C374.124 101.813 378.72 99.9581 384.284 99.9581C389.848 99.9581 394.282 101.49 397.669 104.635C400.975 107.699 403.071 111.73 403.797 116.568H393.637C392.347 111.569 389.283 108.989 384.365 108.989C379.446 108.989 379.527 109.876 377.914 111.73C376.866 113.02 376.221 114.472 375.898 116.246C375.576 118.02 375.414 121.325 375.414 126.244C375.414 131.163 375.576 134.63 375.898 136.404C376.221 138.177 376.866 139.629 377.914 140.838C379.446 142.612 381.542 143.499 384.365 143.499C387.187 143.499 389.767 142.532 391.541 140.596C393.073 138.823 393.879 136.484 393.879 133.743V131.808H384.365V123.422H403.877V131.001L403.797 130.759Z" fill="#231F20"/>
<path d="M453.224 119.632C453.224 121.003 453.224 123.18 453.224 126.083C453.224 128.985 453.224 131.163 453.224 132.533C453.224 133.904 452.982 135.597 452.74 137.613C452.498 139.629 451.933 141.322 451.208 142.693C450.482 144.064 449.434 145.434 448.224 146.644C444.435 150.433 439.839 152.288 434.275 152.288C428.712 152.288 424.035 150.433 420.245 146.644C418.955 145.354 417.988 144.064 417.262 142.693C416.536 141.322 416.052 139.548 415.73 137.532C415.407 135.436 415.246 133.823 415.246 132.533C415.246 131.243 415.246 129.147 415.246 126.083C415.246 123.019 415.246 120.842 415.246 119.632C415.246 118.342 415.488 116.729 415.73 114.633C416.052 112.537 416.536 110.843 417.262 109.473C417.988 108.102 418.955 106.812 420.245 105.522C424.035 101.732 428.712 99.8774 434.275 99.8774C439.839 99.8774 444.435 101.732 448.224 105.522C452.014 109.311 450.482 108.102 451.208 109.553C451.933 110.924 452.498 112.698 452.74 114.633C452.982 116.568 453.224 118.342 453.224 119.713V119.632ZM442.661 136.162C442.983 134.307 443.145 130.921 443.145 126.083C443.145 121.245 442.983 117.858 442.661 116.004C442.338 114.149 441.613 112.617 440.645 111.569C439.032 109.714 436.936 108.828 434.195 108.828C431.453 108.828 429.276 109.714 427.663 111.569C426.615 112.698 425.97 114.149 425.648 116.004C425.325 117.858 425.164 121.164 425.164 126.083C425.164 131.001 425.325 134.307 425.648 136.162C425.97 138.016 426.615 139.468 427.663 140.596C429.276 142.451 431.453 143.338 434.195 143.338C436.936 143.338 439.032 142.451 440.645 140.596C441.693 139.468 442.338 138.016 442.661 136.162Z" fill="#231F20"/>
<path d="M503.538 119.632C503.538 121.003 503.538 123.18 503.538 126.083C503.538 128.985 503.538 131.163 503.538 132.533C503.538 133.904 503.296 135.597 503.054 137.613C502.812 139.629 502.248 141.322 501.522 142.693C500.797 144.064 499.748 145.434 498.539 146.644C494.749 150.433 490.153 152.288 484.59 152.288C479.026 152.288 474.349 150.433 470.56 146.644C469.27 145.354 468.302 144.064 467.576 142.693C466.851 141.322 466.367 139.548 466.044 137.532C465.722 135.436 465.561 133.823 465.561 132.533C465.561 131.243 465.561 129.147 465.561 126.083C465.561 123.019 465.561 120.842 465.561 119.632C465.561 118.342 465.802 116.729 466.044 114.633C466.367 112.537 466.851 110.843 467.576 109.473C468.302 108.102 469.27 106.812 470.56 105.522C474.349 101.732 479.026 99.8774 484.59 99.8774C490.153 99.8774 494.749 101.732 498.539 105.522C499.829 106.812 500.797 108.102 501.522 109.553C502.248 110.924 502.812 112.698 503.054 114.633C503.296 116.568 503.538 118.342 503.538 119.713V119.632ZM493.056 136.162C493.378 134.307 493.54 130.921 493.54 126.083C493.54 121.245 493.378 117.858 493.056 116.004C492.733 114.149 492.008 112.617 491.04 111.569C489.427 109.714 487.25 108.828 484.59 108.828C481.929 108.828 479.671 109.714 478.058 111.569C477.01 112.698 476.365 114.149 476.043 116.004C475.72 117.858 475.559 121.164 475.559 126.083C475.559 131.001 475.72 134.307 476.043 136.162C476.365 138.016 477.01 139.468 478.058 140.596C479.671 142.451 481.848 143.338 484.59 143.338C487.331 143.338 489.427 142.451 491.04 140.596C492.088 139.468 492.733 138.016 493.056 136.162Z" fill="#231F20"/>
<path d="M555.062 123.341V131.001C555.062 131.404 555.062 132.211 555.062 133.42C555.062 134.63 554.9 135.517 554.82 136C554.739 136.484 554.578 137.21 554.497 138.258C554.336 139.306 554.175 140.113 553.852 140.677C553.61 141.322 553.288 141.967 552.884 142.854C552.562 143.66 552.078 144.386 551.594 145.031C551.111 145.676 550.546 146.321 549.901 146.966C546.595 150.272 542.08 151.885 536.274 151.885H517.648V100.2H536.274C542.08 100.2 546.595 101.813 549.901 105.118C550.546 105.764 551.111 106.409 551.594 107.054C552.078 107.699 552.562 108.424 552.884 109.231C553.288 110.037 553.53 110.682 553.852 111.327C554.094 111.892 554.336 112.698 554.497 113.665C554.658 114.633 554.739 115.359 554.82 115.843C554.9 116.326 554.981 117.133 555.062 118.342C555.062 119.552 555.062 120.358 555.062 120.68V123.261V123.341ZM544.983 125.841C544.983 121.729 544.821 118.745 544.579 116.891C544.338 115.036 543.692 113.504 542.806 112.456C541.032 110.36 538.532 109.231 535.226 109.231H527.566V142.935H535.226C538.532 142.935 541.032 141.886 542.806 139.709C543.692 138.581 544.338 137.049 544.579 135.113C544.821 133.178 544.983 130.034 544.983 125.841Z" fill="#231F20"/>
<path d="M182.141 5.29633L193.429 6.98958L241.002 91.4109L193.429 175.832L181.415 177.606L230.117 91.4109L182.221 5.37695L182.141 5.29633Z" fill="#231F20"/>
<path d="M37.6489 91.3302L86.3505 177.525L74.3363 175.832L26.7637 91.4108L74.3363 6.98952L85.5441 5.37689L37.6489 91.3302Z" fill="#231F20"/>
<path d="M181.415 177.526L133.923 183.412L86.3504 177.526L37.7295 91.3305L85.5441 5.37717L133.923 -3.49231L182.141 5.29654L230.036 91.3305L181.415 177.526Z" fill="white"/>
<path d="M117.474 71.495C114.41 68.431 94.8973 94.3944 92.1558 93.9106C90.5432 93.6687 94.2523 87.2182 97.0744 81.4127C98.7676 81.8159 101.509 81.7352 101.751 76.4942C102.074 68.9954 99.1708 63.5125 100.703 61.658C102.315 59.8034 103.767 57.2232 108.121 61.658C110.056 63.5931 115.862 69.2373 121.99 74.8815C119.006 77.2199 115.055 81.9771 111.346 86.4119C104.734 94.475 99.9771 99.7967 99.4933 97.6197C99.0095 95.362 120.377 74.559 117.394 71.495H117.474ZM87.2373 87.5407C90.0594 82.7028 92.7203 78.1874 94.8973 75.2847C94.091 70.5274 92.8815 63.9963 91.9139 61.1742C90.3013 56.4169 91.3495 47.3055 88.608 41.1775C87.6405 39.0811 81.7544 33.5175 73.6912 26.6639C72.1592 29.4053 37.7295 91.411 37.7295 91.411C37.7295 91.411 52.727 117.939 59.9032 130.679C63.0478 127.695 62.6447 128.098 63.3703 127.373C66.8375 123.906 69.8209 110.763 72.8849 106.005C75.9489 101.248 81.9156 96.7327 87.3179 87.5407H87.2373ZM126.263 55.6912C124.005 56.175 129.408 60.9323 137.471 67.5441C141.986 71.2531 146.663 75.2041 149.001 78.1874C154.645 71.9788 160.37 66.1733 162.225 64.3188C166.579 59.9647 164.079 58.4327 162.225 56.9007C160.37 55.2881 154.887 58.1908 147.389 57.9489C142.147 57.7876 142.067 54.9655 142.47 53.2723C136.664 50.4502 130.214 46.7411 129.972 48.3538C129.569 51.0952 155.452 70.6887 152.388 73.6721C149.324 76.7361 128.521 55.2881 126.263 55.7719V55.6912ZM141.502 124.309C143.76 123.825 138.358 119.068 130.295 112.456C125.779 108.747 121.103 104.796 118.764 101.812C113.12 108.021 107.395 113.827 105.541 115.681C101.187 120.035 103.686 121.567 105.541 123.099C107.395 124.712 112.878 121.809 120.377 122.051C125.618 122.212 125.699 125.034 125.295 126.728C131.101 129.55 137.551 133.259 137.793 131.646C138.196 128.905 112.314 109.311 115.378 106.328C118.442 103.264 139.245 124.712 141.502 124.228V124.309ZM170.691 98.5872C173.513 92.7818 177.222 86.3312 175.61 86.0893C172.868 85.6862 153.275 111.569 150.291 108.505C147.227 105.441 168.675 84.638 168.191 82.3803C167.708 80.1226 162.95 85.5249 156.339 93.5881C152.63 98.1035 148.679 102.78 145.695 105.118C151.904 110.763 157.709 116.487 159.564 118.342C163.918 122.696 165.45 120.197 166.982 118.342C168.595 116.487 165.692 111.005 165.934 103.506C166.095 98.2647 168.917 98.1841 170.61 98.5872H170.691ZM120.619 62.4643C119.651 64.3994 142.389 83.5091 140.857 87.6214C142.389 85.6862 144.163 83.6704 146.018 81.574C138.6 76.8167 121.586 60.6098 120.619 62.5449V62.4643ZM161.338 76.6554C159.403 75.6879 140.293 98.426 136.181 96.894C138.116 98.426 140.132 100.2 142.228 102.054C146.985 94.6363 163.192 77.623 161.257 76.6554H161.338ZM147.227 117.455C148.195 115.52 125.457 96.4102 126.989 92.298C125.457 94.2331 123.683 96.2489 121.828 98.3454C129.246 103.103 146.26 119.31 147.227 117.374V117.455ZM171.255 160.512C167.788 157.045 154.645 154.062 149.888 150.998C145.131 147.934 140.615 141.967 131.423 136.565C126.586 133.743 122.07 131.082 119.167 128.905C114.41 129.711 107.879 130.921 105.057 131.888C100.3 133.501 91.1883 132.453 85.0603 135.194C82.9638 136.162 77.6421 141.806 70.7885 149.869C72.4011 152.691 86.3504 177.445 86.3504 177.445L133.842 183.331L181.334 177.445L185.043 170.833C182.06 167.689 171.9 161.157 171.175 160.432L171.255 160.512ZM96.5099 19.407C99.9771 22.8742 113.12 25.8575 117.877 28.9215C122.635 31.9855 127.15 37.9523 136.342 43.3546C141.18 46.1767 145.695 48.8375 148.598 51.0146C153.355 50.2083 159.886 48.9988 162.709 48.0312C167.466 46.4186 176.577 47.4668 182.705 44.7253C184.802 43.7577 189.398 38.9199 196.332 30.8567C192.058 23.1967 182.141 5.3771 182.141 5.3771L133.842 -3.41174L85.4634 5.45773C85.4634 5.45773 84.2539 7.63478 83.367 9.16678C86.3504 12.3114 95.7036 18.7619 96.4293 19.4876L96.5099 19.407ZM131.504 83.0253C129.569 81.4933 127.553 79.7195 125.457 77.8649C120.699 85.283 104.492 102.296 106.428 103.264C108.363 104.231 127.472 81.4933 131.585 83.0253H131.504ZM180.528 92.3786C177.706 97.2165 175.045 101.732 172.868 104.635C173.674 109.392 174.884 115.923 175.851 118.745C177.464 123.502 176.416 132.614 179.157 138.742C180.125 140.838 186.737 146.886 194.8 153.82L230.117 91.3304L206.975 49.7245C206.25 50.7727 205.201 51.9015 204.476 52.6272C201.009 56.0944 198.025 69.2373 194.961 73.9946C191.897 78.7519 185.93 83.2673 180.528 92.4593V92.3786Z" fill="#FED20D"/>
</g>
<defs>
<clipPath id="clip0_8213_4038">
<rect width="615" height="180" fill="white"/>
</clipPath>
</defs>
</svg>
